<svg xmlns="http://www.w3.org/2000/svg" xmlns:xlink="http://www.w3.org/1999/xlink" width="1080" zoomAndPan="magnify" viewBox="0 0 810 599.999999" height="800" preserveAspectRatio="xMidYMid meet" version="1.0"><defs><g/><clipPath id="a3af11b2ff"><path d="M 88 114 L 738 114 L 738 469 L 88 469 Z M 88 114 " clip-rule="nonzero"/></clipPath><clipPath id="6b50e9076d"><path d="M 283.855469 -94.566406 L 809.625 220.1875 L 525.753906 694.371094 L -0.015625 379.617188 Z M 283.855469 -94.566406 " clip-rule="nonzero"/></clipPath><clipPath id="cfe5db1cb1"><path d="M 283.855469 -94.566406 L 809.625 220.1875 L 525.753906 694.371094 L -0.015625 379.617188 Z M 283.855469 -94.566406 " clip-rule="nonzero"/></clipPath><clipPath id="85af200a4b"><path d="M 82 75 L 736 75 L 736 434 L 82 434 Z M 82 75 " clip-rule="nonzero"/></clipPath><clipPath id="f5f11829da"><path d="M 283.855469 -94.566406 L 809.625 220.1875 L 525.753906 694.371094 L -0.015625 379.617188 Z M 283.855469 -94.566406 " clip-rule="nonzero"/></clipPath><clipPath id="2a5eb7023a"><path d="M 283.855469 -94.566406 L 809.625 220.1875 L 525.753906 694.371094 L -0.015625 379.617188 Z M 283.855469 -94.566406 " clip-rule="nonzero"/></clipPath><clipPath id="18c58bbd6b"><path d="M 267 340 L 315.816406 340 L 315.816406 389.242188 L 267 389.242188 Z M 267 340 " clip-rule="nonzero"/></clipPath></defs><rect x="-81" width="972" fill="#ffffff" y="-60" height="719.999999" fill-opacity="1"/><rect x="-81" width="972" fill="#ffffff" y="-60" height="719.999999" fill-opacity="1"/><rect x="-81" width="972" fill="#ffffff" y="-60" height="719.999999" fill-opacity="1"/><g clip-path="url(#a3af11b2ff)"><g clip-path="url(#6b50e9076d)"><g clip-path="url(#cfe5db1cb1)"><path fill="#9d7b7c" d="M 137.46875 299.203125 C 158.59375 134.546875 172.609375 101.015625 245.492188 119.089844 C 340.972656 142.761719 388 180.757812 463.164062 178.3125 C 505.265625 176.945312 541.15625 130.488281 582.71875 137.292969 C 643.683594 147.269531 705.695312 193.253906 729.660156 250.199219 C 745.726562 288.367188 734.269531 336.941406 714.96875 373.59375 C 694.140625 413.144531 656.800781 448.675781 614.148438 461.996094 C 470.515625 492.640625 369.105469 398.808594 230.246094 442.753906 C 173.570312 459.570312 84.664062 429.898438 88.667969 375.101562 C 90.941406 356.589844 135.097656 317.703125 137.46875 299.203125 Z M 137.46875 299.203125 " fill-opacity="1" fill-rule="nonzero"/></g></g></g><g clip-path="url(#85af200a4b)"><g clip-path="url(#f5f11829da)"><g clip-path="url(#2a5eb7023a)"><path fill="#564033" d="M 646.941406 123.347656 C 625.628906 110.683594 602.363281 101.800781 579.199219 98.011719 C 557.554688 94.46875 537.707031 104.746094 518.226562 115.707031 C 498.75 126.667969 479.515625 138.347656 459.230469 139.003906 C 422.023438 140.214844 391.824219 131.441406 358.820312 119.320312 C 325.816406 107.195312 290.066406 91.722656 242.144531 79.84375 C 223.757812 75.28125 208.875 73.890625 196.421875 77.214844 C 183.96875 80.539062 174.167969 88.699219 166.34375 102.394531 C 150.699219 129.785156 142.046875 179.398438 131.476562 261.765625 C 130.980469 265.652344 127.96875 271.449219 123.53125 277.882812 C 119.097656 284.3125 113.308594 291.457031 107.5 298.632812 C 101.691406 305.808594 95.855469 313.011719 91.285156 319.65625 C 86.714844 326.300781 83.335938 332.304688 82.675781 337.675781 L 82.667969 337.730469 L 82.664062 337.78125 C 81.621094 352.070312 86.683594 364.8125 95.628906 375.375 C 104.570312 385.941406 117.363281 394.410156 132.003906 400.59375 C 161.28125 412.957031 198.027344 416.238281 226.988281 407.644531 L 227.007812 407.640625 L 227.027344 407.632812 C 295.894531 385.839844 355.421875 398.183594 416.054688 412.3125 C 476.683594 426.4375 538.375 442.367188 610.730469 426.929688 L 610.828125 426.910156 L 610.921875 426.882812 C 654.269531 413.34375 691.921875 377.445312 712.996094 337.429688 C 732.503906 300.394531 744.226562 251.300781 727.773438 212.203125 C 712.570312 176.085938 682.464844 144.460938 646.941406 123.347656 Z M 644.699219 127.097656 C 679.488281 147.8125 709.0625 178.804688 723.824219 213.871094 C 739.492188 251.101562 728.308594 299.160156 709.207031 335.433594 C 688.636719 374.492188 651.652344 409.636719 609.726562 422.757812 C 538.496094 437.925781 477.699219 422.273438 417.03125 408.136719 C 356.335938 393.996094 295.730469 381.394531 225.738281 403.546875 C 198.027344 411.757812 162.003906 408.605469 133.675781 396.644531 C 119.503906 390.660156 107.273438 382.488281 98.90625 372.605469 C 90.546875 362.730469 86.003906 351.230469 86.945312 338.144531 C 87.441406 334.261719 90.417969 328.492188 94.820312 322.085938 C 99.246094 315.65625 105.023438 308.507812 110.835938 301.335938 C 116.644531 294.160156 122.484375 286.960938 127.066406 280.316406 C 131.648438 273.675781 135.046875 267.675781 135.734375 262.3125 C 146.292969 180.023438 155.207031 130.542969 170.070312 104.523438 C 177.503906 91.511719 186.195312 84.386719 197.527344 81.363281 C 208.859375 78.335938 223.058594 79.53125 241.113281 84.007812 C 288.671875 95.800781 324.171875 111.164062 357.34375 123.347656 C 390.515625 135.527344 421.410156 144.527344 459.371094 143.292969 C 481.1875 142.585938 500.949219 130.355469 520.332031 119.445312 C 539.714844 108.539062 558.589844 98.988281 578.507812 102.246094 C 601.070312 105.9375 623.824219 114.667969 644.699219 127.097656 Z M 644.699219 127.097656 " fill-opacity="1" fill-rule="nonzero"/></g></g></g><path fill="#9ec1cf" d="M 304.4375 378.117188 L 308.011719 386.714844 C 308.011719 386.714844 308.519531 388.1875 306.847656 388.777344 C 306.847656 388.777344 305.765625 389.21875 304.597656 387.894531 L 298.734375 381.625 L 304.4375 378.117188 " fill-opacity="1" fill-rule="nonzero"/><path fill="#9ec1cf" d="M 273.976562 378.117188 L 270.402344 386.714844 C 270.402344 386.714844 269.894531 388.1875 271.566406 388.777344 C 271.566406 388.777344 272.648438 389.21875 273.816406 387.894531 L 279.679688 381.625 L 273.976562 378.117188 " fill-opacity="1" fill-rule="nonzero"/><path fill="#9ec1cf" d="M 299.226562 343.402344 L 302.726562 345.410156 L 306.179688 339.230469 L 302.679688 337.226562 L 299.226562 343.402344 " fill-opacity="1" fill-rule="nonzero"/><path fill="#ef2a45" d="M 295.78125 333.230469 C 298.519531 328.460938 304.542969 326.796875 309.296875 329.519531 C 314.050781 332.246094 315.742188 338.335938 313.113281 343.167969 L 295.78125 333.230469 " fill-opacity="1" fill-rule="nonzero"/><path fill="#9ec1cf" d="M 279.1875 343.402344 L 275.6875 345.410156 L 272.234375 339.230469 L 275.734375 337.226562 L 279.1875 343.402344 " fill-opacity="1" fill-rule="nonzero"/><path fill="#ef2a45" d="M 282.632812 333.230469 C 279.894531 328.460938 273.871094 326.796875 269.117188 329.519531 C 264.363281 332.246094 262.671875 338.335938 265.300781 343.167969 L 282.632812 333.230469 " fill-opacity="1" fill-rule="nonzero"/><path fill="#ef2a45" d="M 313.1875 361.308594 C 313.1875 374.722656 302.449219 385.59375 289.207031 385.59375 C 275.964844 385.59375 265.226562 374.722656 265.226562 361.308594 C 265.226562 347.890625 275.964844 337.015625 289.207031 337.015625 C 302.449219 337.015625 313.1875 347.890625 313.1875 361.308594 " fill-opacity="1" fill-rule="nonzero"/><path fill="#ffffff" d="M 308.628906 361.308594 C 308.628906 372.171875 299.933594 380.976562 289.207031 380.976562 C 278.480469 380.976562 269.785156 372.171875 269.785156 361.308594 C 269.785156 350.441406 278.480469 341.636719 289.207031 341.636719 C 299.933594 341.636719 308.628906 350.441406 308.628906 361.308594 " fill-opacity="1" fill-rule="nonzero"/><path stroke-linecap="butt" transform="matrix(0.0301703, 0, 0, -0.0305602, 225.064942, 423.50057)" fill="none" stroke-linejoin="miter" d="M 2126.000716 2458.92008 L 2126.000716 2105.2381 " stroke="#24537d" stroke-width="50" stroke-opacity="1" stroke-miterlimit="10"/><g clip-path="url(#18c58bbd6b)"><path stroke-linecap="butt" transform="matrix(0.0301703, 0, 0, -0.0305602, 225.064942, 423.50057)" fill="none" stroke-linejoin="miter" d="M 2126.000716 2021.642865 L 2548.083792 1820.963172 " stroke="#24537d" stroke-width="50" stroke-opacity="1" stroke-miterlimit="10"/></g><path fill="#ef2a45" d="M 291.320312 361.308594 C 291.320312 362.488281 290.375 363.449219 289.207031 363.449219 C 288.039062 363.449219 287.09375 362.488281 287.09375 361.308594 C 287.09375 360.125 288.039062 359.164062 289.207031 359.164062 C 290.375 359.164062 291.320312 360.125 291.320312 361.308594 " fill-opacity="1" fill-rule="nonzero"/><path fill="#ef2a45" d="M 290.371094 378.117188 C 290.371094 378.769531 289.851562 379.296875 289.207031 379.296875 C 288.5625 379.296875 288.042969 378.769531 288.042969 378.117188 C 288.042969 377.464844 288.5625 376.9375 289.207031 376.9375 C 289.851562 376.9375 290.371094 377.464844 290.371094 378.117188 " fill-opacity="1" fill-rule="nonzero"/><path fill="#ef2a45" d="M 290.371094 344.496094 C 290.371094 345.148438 289.851562 345.675781 289.207031 345.675781 C 288.5625 345.675781 288.042969 345.148438 288.042969 344.496094 C 288.042969 343.84375 288.5625 343.316406 289.207031 343.316406 C 289.851562 343.316406 290.371094 343.84375 290.371094 344.496094 " fill-opacity="1" fill-rule="nonzero"/><path fill="#ef2a45" d="M 272.609375 362.484375 C 271.96875 362.484375 271.445312 361.957031 271.445312 361.308594 C 271.445312 360.65625 271.96875 360.125 272.609375 360.125 C 273.253906 360.125 273.777344 360.65625 273.777344 361.308594 C 273.777344 361.957031 273.253906 362.484375 272.609375 362.484375 " fill-opacity="1" fill-rule="nonzero"/><path fill="#ef2a45" d="M 305.804688 362.484375 C 305.160156 362.484375 304.640625 361.957031 304.640625 361.308594 C 304.640625 360.65625 305.160156 360.125 305.804688 360.125 C 306.445312 360.125 306.96875 360.65625 306.96875 361.308594 C 306.96875 361.957031 306.445312 362.484375 305.804688 362.484375 " fill-opacity="1" fill-rule="nonzero"/><path fill="#ef2a45" d="M 281.195312 376.074219 C 280.847656 376.625 280.125 376.78125 279.585938 376.429688 C 279.046875 376.074219 278.890625 375.347656 279.238281 374.796875 C 279.585938 374.25 280.308594 374.09375 280.847656 374.445312 C 281.390625 374.796875 281.542969 375.527344 281.195312 376.074219 " fill-opacity="1" fill-rule="nonzero"/><path fill="#ef2a45" d="M 299.175781 347.816406 C 298.828125 348.363281 298.105469 348.519531 297.566406 348.167969 C 297.027344 347.8125 296.867188 347.085938 297.21875 346.535156 C 297.566406 345.988281 298.285156 345.832031 298.828125 346.183594 C 299.367188 346.535156 299.523438 347.265625 299.175781 347.816406 " fill-opacity="1" fill-rule="nonzero"/><path fill="#ef2a45" d="M 275.445312 370.777344 C 274.890625 371.105469 274.175781 370.914062 273.855469 370.351562 C 273.53125 369.789062 273.71875 369.066406 274.273438 368.738281 C 274.832031 368.410156 275.542969 368.601562 275.867188 369.164062 C 276.191406 369.726562 276.003906 370.449219 275.445312 370.777344 " fill-opacity="1" fill-rule="nonzero"/><path fill="#ef2a45" d="M 304.140625 353.875 C 303.582031 354.203125 302.871094 354.011719 302.546875 353.449219 C 302.222656 352.886719 302.414062 352.164062 302.96875 351.835938 C 303.523438 351.507812 304.238281 351.699219 304.558594 352.261719 C 304.882812 352.828125 304.695312 353.546875 304.140625 353.875 " fill-opacity="1" fill-rule="nonzero"/><path fill="#ef2a45" d="M 273.933594 354.628906 C 273.359375 354.328125 273.136719 353.617188 273.433594 353.039062 C 273.730469 352.457031 274.433594 352.234375 275.003906 352.53125 C 275.574219 352.832031 275.796875 353.542969 275.503906 354.121094 C 275.207031 354.699219 274.503906 354.925781 273.933594 354.628906 " fill-opacity="1" fill-rule="nonzero"/><path fill="#ef2a45" d="M 303.410156 370.082031 C 302.839844 369.78125 302.617188 369.070312 302.910156 368.492188 C 303.207031 367.910156 303.910156 367.6875 304.480469 367.984375 C 305.054688 368.285156 305.277344 368.996094 304.980469 369.574219 C 304.683594 370.152344 303.984375 370.378906 303.410156 370.082031 " fill-opacity="1" fill-rule="nonzero"/><path fill="#ef2a45" d="M 279.710938 347.46875 C 279.382812 346.910156 279.5625 346.183594 280.117188 345.851562 C 280.667969 345.519531 281.382812 345.699219 281.714844 346.261719 C 282.042969 346.820312 281.863281 347.542969 281.308594 347.878906 C 280.757812 348.210938 280.039062 348.027344 279.710938 347.46875 " fill-opacity="1" fill-rule="nonzero"/><path fill="#ef2a45" d="M 296.699219 376.351562 C 296.371094 375.792969 296.554688 375.070312 297.105469 374.734375 C 297.65625 374.402344 298.371094 374.585938 298.703125 375.144531 C 299.03125 375.703125 298.851562 376.429688 298.296875 376.761719 C 297.746094 377.09375 297.03125 376.910156 296.699219 376.351562 " fill-opacity="1" fill-rule="nonzero"/><g fill="#f9f3e9" fill-opacity="1"><g transform="translate(176.082382, 261.061908)"><g><path d="M 3.421875 -0.359375 L 2.328125 -10.96875 L 18 -12.578125 L 13.84375 -52.984375 L 12.796875 -53.140625 C 10.671875 -51.835938 8.566406 -50.765625 6.484375 -49.921875 C 4.410156 -49.085938 2.019531 -48.351562 -0.6875 -47.71875 L -1.8125 -58.6875 C 5.21875 -60.925781 10.800781 -63.742188 14.9375 -67.140625 L 25.09375 -68.1875 L 30.6875 -13.890625 L 44.671875 -15.328125 L 45.765625 -4.71875 Z M 3.421875 -0.359375 "/></g></g></g><g fill="#f9f3e9" fill-opacity="1"><g transform="translate(222.887241, 260.935434)"><g><path d="M 3.59375 0.28125 L 4.46875 -10.890625 L 20.96875 -9.59375 L 24.3125 -52.125 L 23.25 -52.484375 C 20.832031 -51.554688 18.46875 -50.851562 16.15625 -50.375 C 13.84375 -49.894531 11.222656 -49.582031 8.296875 -49.4375 L 9.203125 -60.984375 C 16.898438 -61.972656 23.207031 -63.828125 28.125 -66.546875 L 38.84375 -65.703125 L 34.34375 -8.546875 L 49.0625 -7.390625 L 48.1875 3.78125 Z M 3.59375 0.28125 "/></g></g></g><g fill="#f9f3e9" fill-opacity="1"><g transform="translate(287.29353, 263.021705)"><g><path d="M 65.78125 0 L 51.53125 0 L 46.375 -15.796875 L 20.109375 -15.796875 L 14.953125 0 L 1.03125 0 L 24.71875 -68.546875 L 42.109375 -68.546875 Z M 32.59375 -54.25 L 23.765625 -27.203125 L 42.625 -27.203125 L 33.765625 -54.25 Z M 32.59375 -54.25 "/></g></g></g><g fill="#f9f3e9" fill-opacity="1"><g transform="translate(351.59168, 274.893109)"><g><path d="M 35.96875 -5.34375 C 26.65625 -3.707031 19.363281 -4.695312 14.09375 -8.3125 C 8.820312 -11.9375 5.421875 -18.09375 3.890625 -26.78125 L -3.5625 -68.96875 L 9.5 -71.28125 L 16.9375 -29.1875 C 17.8125 -24.25 19.648438 -20.757812 22.453125 -18.71875 C 25.265625 -16.675781 29.085938 -16.078125 33.921875 -16.921875 C 43.484375 -18.617188 47.394531 -24.398438 45.65625 -34.265625 L 38.21875 -76.359375 L 51.28125 -78.65625 L 58.734375 -36.46875 C 60.265625 -27.78125 59.175781 -20.832031 55.46875 -15.625 C 51.757812 -10.414062 45.257812 -6.988281 35.96875 -5.34375 Z M 35.96875 -5.34375 "/></g></g></g><g fill="#f9f3e9" fill-opacity="1"><g transform="translate(407.350296, 261.404931)"><g><path d="M 32.828125 5.671875 C 27.160156 4.867188 22.441406 2.878906 18.671875 -0.296875 C 14.910156 -3.472656 12.28125 -7.820312 10.78125 -13.34375 C 9.289062 -18.875 9.09375 -25.484375 10.1875 -33.171875 C 11.289062 -40.898438 13.554688 -47.175781 16.984375 -52 C 20.421875 -56.832031 24.710938 -60.179688 29.859375 -62.046875 C 35.015625 -63.921875 40.75 -64.410156 47.0625 -63.515625 C 53.550781 -62.578125 58.910156 -60.578125 63.140625 -57.515625 C 67.378906 -54.453125 70.09375 -50.40625 71.28125 -45.375 L 60.640625 -40.828125 L 59.484375 -41.03125 C 58.523438 -44.269531 56.882812 -46.765625 54.5625 -48.515625 C 52.238281 -50.273438 49.191406 -51.425781 45.421875 -51.96875 C 39.566406 -52.800781 34.828125 -51.585938 31.203125 -48.328125 C 27.578125 -45.078125 25.179688 -39.367188 24.015625 -31.203125 C 22.847656 -22.992188 23.445312 -16.820312 25.8125 -12.6875 C 28.175781 -8.5625 32.1875 -6.097656 37.84375 -5.296875 C 42.738281 -4.597656 46.5 -5.179688 49.125 -7.046875 C 51.757812 -8.910156 53.390625 -12.023438 54.015625 -16.390625 L 54.4375 -19.328125 L 38.375 -21.625 L 39.9375 -32.53125 L 69.3125 -28.328125 L 63.953125 9.140625 L 51.15625 7.3125 L 52.453125 -1.78125 L 51.484375 -2.0625 C 49.640625 0.988281 47.171875 3.195312 44.078125 4.5625 C 40.992188 5.9375 37.242188 6.304688 32.828125 5.671875 Z M 32.828125 5.671875 "/></g></g></g><g fill="#f9f3e9" fill-opacity="1"><g transform="translate(500.817167, 277.230206)"><g><path d="M 3.328125 -5.4375 C 3.328125 -9.21875 3.738281 -12.40625 4.5625 -15 C 5.394531 -17.59375 6.75 -19.960938 8.625 -22.109375 C 10.5 -24.253906 13.15625 -26.5625 16.59375 -29.03125 L 25.75 -35.640625 C 28.25 -37.421875 30.191406 -38.96875 31.578125 -40.28125 C 32.972656 -41.59375 34.019531 -42.96875 34.71875 -44.40625 C 35.425781 -45.84375 35.78125 -47.484375 35.78125 -49.328125 C 35.78125 -52.109375 34.9375 -54.253906 33.25 -55.765625 C 31.5625 -57.285156 29.03125 -58.046875 25.65625 -58.046875 C 22.394531 -58.046875 19.5 -57.269531 16.96875 -55.71875 C 14.4375 -54.175781 12.34375 -52.0625 10.6875 -49.375 L 9.796875 -49.140625 L 2.34375 -57.484375 C 4.78125 -61.109375 7.957031 -64.019531 11.875 -66.21875 C 15.800781 -68.425781 20.566406 -69.53125 26.171875 -69.53125 C 31.296875 -69.53125 35.582031 -68.6875 39.03125 -67 C 42.488281 -65.3125 45.050781 -63.003906 46.71875 -60.078125 C 48.394531 -57.160156 49.234375 -53.8125 49.234375 -50.03125 C 49.234375 -46.78125 48.550781 -43.8125 47.1875 -41.125 C 45.832031 -38.4375 43.953125 -35.953125 41.546875 -33.671875 C 39.140625 -31.390625 36.0625 -28.9375 32.3125 -26.3125 L 24.203125 -20.625 C 21.753906 -18.875 20.046875 -17.316406 19.078125 -15.953125 C 18.109375 -14.597656 17.625 -13.0625 17.625 -11.34375 L 48.578125 -11.34375 L 48.578125 0 L 3.328125 0 Z M 3.328125 -5.4375 "/></g></g></g><g fill="#f9f3e9" fill-opacity="1"><g transform="translate(546.744806, 259.742882)"><g><path d="M 32.984375 5.90625 C 27.441406 5.082031 22.800781 3.140625 19.0625 0.078125 C 15.332031 -2.984375 12.71875 -7.28125 11.21875 -12.8125 C 9.726562 -18.351562 9.578125 -25.101562 10.765625 -33.0625 C 11.953125 -41.007812 14.066406 -47.40625 17.109375 -52.25 C 20.148438 -57.09375 23.90625 -60.4375 28.375 -62.28125 C 32.84375 -64.132812 37.847656 -64.648438 43.390625 -63.828125 C 48.953125 -62.992188 53.59375 -61.039062 57.3125 -57.96875 C 61.039062 -54.90625 63.65625 -50.609375 65.15625 -45.078125 C 66.65625 -39.554688 66.8125 -32.820312 65.625 -24.875 C 64.4375 -16.914062 62.316406 -10.507812 59.265625 -5.65625 C 56.222656 -0.800781 52.472656 2.546875 48.015625 4.390625 C 43.554688 6.234375 38.546875 6.738281 32.984375 5.90625 Z M 34.671875 -5.453125 C 37.691406 -4.992188 40.332031 -5.347656 42.59375 -6.515625 C 44.851562 -7.679688 46.789062 -9.914062 48.40625 -13.21875 C 50.03125 -16.519531 51.273438 -21.078125 52.140625 -26.890625 C 53.003906 -32.703125 53.144531 -37.414062 52.5625 -41.03125 C 51.976562 -44.65625 50.773438 -47.351562 48.953125 -49.125 C 47.128906 -50.894531 44.707031 -52.007812 41.6875 -52.46875 C 38.65625 -52.914062 36.003906 -52.554688 33.734375 -51.390625 C 31.472656 -50.234375 29.535156 -48.003906 27.921875 -44.703125 C 26.304688 -41.410156 25.066406 -36.859375 24.203125 -31.046875 C 23.335938 -25.234375 23.191406 -20.515625 23.765625 -16.890625 C 24.347656 -13.265625 25.550781 -10.5625 27.375 -8.78125 C 29.207031 -7.007812 31.640625 -5.898438 34.671875 -5.453125 Z M 34.671875 -5.453125 "/></g></g></g><g fill="#f9f3e9" fill-opacity="1"><g transform="translate(617.823381, 291.288367)"><g><path d="M 2.53125 -5.859375 C 2 -9.597656 1.957031 -12.804688 2.40625 -15.484375 C 2.863281 -18.171875 3.875 -20.707031 5.4375 -23.09375 C 7 -25.488281 9.300781 -28.148438 12.34375 -31.078125 L 20.5 -38.890625 C 22.71875 -41.015625 24.425781 -42.820312 25.625 -44.3125 C 26.820312 -45.800781 27.664062 -47.304688 28.15625 -48.828125 C 28.644531 -50.347656 28.757812 -52.023438 28.5 -53.859375 C 28.101562 -56.609375 26.96875 -58.613281 25.09375 -59.875 C 23.21875 -61.144531 20.609375 -61.539062 17.265625 -61.0625 C 14.035156 -60.613281 11.273438 -59.441406 8.984375 -57.546875 C 6.691406 -55.660156 4.914062 -53.273438 3.65625 -50.390625 L 2.8125 -50.03125 L -5.734375 -57.25 C -3.835938 -61.175781 -1.101562 -64.503906 2.46875 -67.234375 C 6.050781 -69.972656 10.613281 -71.734375 16.15625 -72.515625 C 21.238281 -73.234375 25.601562 -73 29.25 -71.8125 C 32.90625 -70.625 35.765625 -68.703125 37.828125 -66.046875 C 39.898438 -63.390625 41.203125 -60.1875 41.734375 -56.4375 C 42.179688 -53.21875 41.921875 -50.179688 40.953125 -47.328125 C 39.984375 -44.484375 38.46875 -41.765625 36.40625 -39.171875 C 34.34375 -36.578125 31.644531 -33.710938 28.3125 -30.578125 L 21.078125 -23.8125 C 18.890625 -21.738281 17.410156 -19.957031 16.640625 -18.46875 C 15.878906 -16.988281 15.617188 -15.398438 15.859375 -13.703125 L 46.5 -18.046875 L 48.09375 -6.8125 L 3.296875 -0.46875 Z M 2.53125 -5.859375 "/></g></g></g><g fill="#f9f3e9" fill-opacity="1"><g transform="translate(653.523009, 276.227856)"><g><path d="M 27.953125 0.984375 C 20.597656 0.984375 14.765625 -0.566406 10.453125 -3.671875 C 6.140625 -6.785156 3.40625 -11.1875 2.25 -16.875 L 12.515625 -21.65625 L 13.59375 -21.46875 C 14.75 -17.6875 16.394531 -14.925781 18.53125 -13.1875 C 20.675781 -11.457031 23.660156 -10.59375 27.484375 -10.59375 C 31.171875 -10.59375 33.984375 -11.453125 35.921875 -13.171875 C 37.859375 -14.890625 38.828125 -17.390625 38.828125 -20.671875 C 38.828125 -23.898438 37.863281 -26.375 35.9375 -28.09375 C 34.019531 -29.8125 31.203125 -30.671875 27.484375 -30.671875 L 17.15625 -30.671875 L 17.15625 -41.21875 L 26.171875 -41.21875 C 29.234375 -41.21875 31.671875 -41.984375 33.484375 -43.515625 C 35.296875 -45.046875 36.203125 -47.234375 36.203125 -50.078125 C 36.203125 -52.890625 35.347656 -55.003906 33.640625 -56.421875 C 31.941406 -57.847656 29.59375 -58.5625 26.59375 -58.5625 C 23.519531 -58.5625 20.800781 -57.84375 18.4375 -56.40625 C 16.082031 -54.96875 14.1875 -53.03125 12.75 -50.59375 L 11.671875 -50.40625 L 4.546875 -58.703125 C 6.953125 -61.953125 10.046875 -64.566406 13.828125 -66.546875 C 17.609375 -68.535156 22.113281 -69.53125 27.34375 -69.53125 C 34.53125 -69.53125 40.015625 -68.03125 43.796875 -65.03125 C 47.578125 -62.03125 49.46875 -57.8125 49.46875 -52.375 C 49.46875 -49.09375 48.703125 -46.285156 47.171875 -43.953125 C 45.640625 -41.628906 43.4375 -39.625 40.5625 -37.9375 L 40.5625 -36.953125 C 48.46875 -34.171875 52.421875 -28.539062 52.421875 -20.0625 C 52.421875 -15.8125 51.515625 -12.109375 49.703125 -8.953125 C 47.890625 -5.796875 45.15625 -3.347656 41.5 -1.609375 C 37.84375 0.117188 33.328125 0.984375 27.953125 0.984375 Z M 27.953125 0.984375 "/></g></g></g><g fill="#f9f3e9" fill-opacity="1"><g transform="translate(334.671002, 371.635383)"><g><path d="M 2.171875 0 L 2.171875 -2.953125 L 10.484375 -2.953125 L 10.484375 -26.265625 L 10.015625 -26.390625 C 8.660156 -25.722656 7.472656 -25.210938 6.453125 -24.859375 C 5.441406 -24.503906 4.144531 -24.160156 2.5625 -23.828125 L 2.5625 -27.125 C 4.132812 -27.457031 5.6875 -27.910156 7.21875 -28.484375 C 8.757812 -29.054688 10.15625 -29.722656 11.40625 -30.484375 L 13.984375 -30.484375 L 13.984375 -2.953125 L 21.4375 -2.953125 L 21.4375 0 Z M 2.171875 0 "/></g></g></g><g fill="#f9f3e9" fill-opacity="1"><g transform="translate(357.400764, 371.635383)"><g><path d="M 1.828125 -1.390625 C 1.828125 -3.078125 2.007812 -4.429688 2.375 -5.453125 C 2.75 -6.484375 3.378906 -7.441406 4.265625 -8.328125 C 5.160156 -9.222656 6.582031 -10.378906 8.53125 -11.796875 L 11.890625 -14.234375 C 13.117188 -15.140625 14.125 -15.972656 14.90625 -16.734375 C 15.6875 -17.503906 16.300781 -18.335938 16.75 -19.234375 C 17.207031 -20.128906 17.4375 -21.132812 17.4375 -22.25 C 17.4375 -24.050781 16.953125 -25.410156 15.984375 -26.328125 C 15.023438 -27.253906 13.523438 -27.71875 11.484375 -27.71875 C 9.867188 -27.71875 8.4375 -27.335938 7.1875 -26.578125 C 5.9375 -25.828125 4.9375 -24.765625 4.1875 -23.390625 L 3.71875 -23.3125 L 1.5625 -25.5625 C 2.59375 -27.226562 3.941406 -28.535156 5.609375 -29.484375 C 7.285156 -30.441406 9.242188 -30.921875 11.484375 -30.921875 C 13.648438 -30.921875 15.445312 -30.550781 16.875 -29.8125 C 18.3125 -29.082031 19.367188 -28.066406 20.046875 -26.765625 C 20.734375 -25.460938 21.078125 -23.957031 21.078125 -22.25 C 21.078125 -20.882812 20.789062 -19.609375 20.21875 -18.421875 C 19.65625 -17.242188 18.851562 -16.132812 17.8125 -15.09375 C 16.769531 -14.050781 15.460938 -12.953125 13.890625 -11.796875 L 10.484375 -9.328125 C 9.222656 -8.390625 8.25 -7.59375 7.5625 -6.9375 C 6.882812 -6.289062 6.390625 -5.65625 6.078125 -5.03125 C 5.765625 -4.414062 5.609375 -3.722656 5.609375 -2.953125 L 21.078125 -2.953125 L 21.078125 0 L 1.828125 0 Z M 1.828125 -1.390625 "/></g></g></g><g fill="#f9f3e9" fill-opacity="1"><g transform="translate(380.839528, 371.635383)"><g><path d="M 5.609375 0.203125 C 4.816406 0.203125 4.191406 -0.015625 3.734375 -0.453125 C 3.273438 -0.898438 3.046875 -1.492188 3.046875 -2.234375 C 3.046875 -2.953125 3.273438 -3.546875 3.734375 -4.015625 C 4.191406 -4.484375 4.816406 -4.71875 5.609375 -4.71875 C 6.410156 -4.71875 7.039062 -4.492188 7.5 -4.046875 C 7.957031 -3.597656 8.1875 -3.003906 8.1875 -2.265625 C 8.1875 -1.535156 7.953125 -0.941406 7.484375 -0.484375 C 7.023438 -0.0234375 6.398438 0.203125 5.609375 0.203125 Z M 5.609375 0.203125 "/></g></g></g><g fill="#f9f3e9" fill-opacity="1"><g transform="translate(392.079291, 371.635383)"><g><path d="M 14.984375 0.4375 C 12.753906 0.4375 10.75 -0.0976562 8.96875 -1.171875 C 7.1875 -2.253906 5.765625 -3.96875 4.703125 -6.3125 C 3.648438 -8.65625 3.125 -11.628906 3.125 -15.234375 C 3.125 -18.847656 3.648438 -21.828125 4.703125 -24.171875 C 5.765625 -26.515625 7.1875 -28.222656 8.96875 -29.296875 C 10.75 -30.378906 12.753906 -30.921875 14.984375 -30.921875 C 17.222656 -30.921875 19.234375 -30.378906 21.015625 -29.296875 C 22.796875 -28.222656 24.207031 -26.515625 25.25 -24.171875 C 26.300781 -21.828125 26.828125 -18.847656 26.828125 -15.234375 C 26.828125 -11.628906 26.300781 -8.65625 25.25 -6.3125 C 24.207031 -3.96875 22.796875 -2.253906 21.015625 -1.171875 C 19.234375 -0.0976562 17.222656 0.4375 14.984375 0.4375 Z M 14.984375 -2.875 C 17.640625 -2.875 19.648438 -3.828125 21.015625 -5.734375 C 22.390625 -7.648438 23.078125 -10.816406 23.078125 -15.234375 C 23.078125 -19.660156 22.390625 -22.828125 21.015625 -24.734375 C 19.648438 -26.648438 17.640625 -27.609375 14.984375 -27.609375 C 13.234375 -27.609375 11.757812 -27.203125 10.5625 -26.390625 C 9.375 -25.585938 8.460938 -24.273438 7.828125 -22.453125 C 7.191406 -20.628906 6.875 -18.222656 6.875 -15.234375 C 6.875 -12.253906 7.191406 -9.851562 7.828125 -8.03125 C 8.460938 -6.207031 9.375 -4.890625 10.5625 -4.078125 C 11.757812 -3.273438 13.234375 -2.875 14.984375 -2.875 Z M 14.984375 -2.875 "/></g></g></g><g fill="#f9f3e9" fill-opacity="1"><g transform="translate(422.065895, 371.635383)"><g><path d="M 14.984375 0.4375 C 12.753906 0.4375 10.75 -0.0976562 8.96875 -1.171875 C 7.1875 -2.253906 5.765625 -3.96875 4.703125 -6.3125 C 3.648438 -8.65625 3.125 -11.628906 3.125 -15.234375 C 3.125 -18.847656 3.648438 -21.828125 4.703125 -24.171875 C 5.765625 -26.515625 7.1875 -28.222656 8.96875 -29.296875 C 10.75 -30.378906 12.753906 -30.921875 14.984375 -30.921875 C 17.222656 -30.921875 19.234375 -30.378906 21.015625 -29.296875 C 22.796875 -28.222656 24.207031 -26.515625 25.25 -24.171875 C 26.300781 -21.828125 26.828125 -18.847656 26.828125 -15.234375 C 26.828125 -11.628906 26.300781 -8.65625 25.25 -6.3125 C 24.207031 -3.96875 22.796875 -2.253906 21.015625 -1.171875 C 19.234375 -0.0976562 17.222656 0.4375 14.984375 0.4375 Z M 14.984375 -2.875 C 17.640625 -2.875 19.648438 -3.828125 21.015625 -5.734375 C 22.390625 -7.648438 23.078125 -10.816406 23.078125 -15.234375 C 23.078125 -19.660156 22.390625 -22.828125 21.015625 -24.734375 C 19.648438 -26.648438 17.640625 -27.609375 14.984375 -27.609375 C 13.234375 -27.609375 11.757812 -27.203125 10.5625 -26.390625 C 9.375 -25.585938 8.460938 -24.273438 7.828125 -22.453125 C 7.191406 -20.628906 6.875 -18.222656 6.875 -15.234375 C 6.875 -12.253906 7.191406 -9.851562 7.828125 -8.03125 C 8.460938 -6.207031 9.375 -4.890625 10.5625 -4.078125 C 11.757812 -3.273438 13.234375 -2.875 14.984375 -2.875 Z M 14.984375 -2.875 "/></g></g></g><g fill="#f9f3e9" fill-opacity="1"><g transform="translate(452.052499, 371.635383)"><g><path d="M 14.03125 -13.28125 L 2.171875 -13.28125 L 2.171875 -16.328125 L 14.03125 -16.328125 Z M 14.03125 -13.28125 "/></g></g></g><g fill="#f9f3e9" fill-opacity="1"><g transform="translate(468.234422, 371.635383)"><g><path d="M 2.171875 0 L 2.171875 -2.953125 L 10.484375 -2.953125 L 10.484375 -26.265625 L 10.015625 -26.390625 C 8.660156 -25.722656 7.472656 -25.210938 6.453125 -24.859375 C 5.441406 -24.503906 4.144531 -24.160156 2.5625 -23.828125 L 2.5625 -27.125 C 4.132812 -27.457031 5.6875 -27.910156 7.21875 -28.484375 C 8.757812 -29.054688 10.15625 -29.722656 11.40625 -30.484375 L 13.984375 -30.484375 L 13.984375 -2.953125 L 21.4375 -2.953125 L 21.4375 0 Z M 2.171875 0 "/></g></g></g><g fill="#f9f3e9" fill-opacity="1"><g transform="translate(490.964184, 371.635383)"><g><path d="M 12.890625 0.4375 C 10.242188 0.4375 8.097656 -0.160156 6.453125 -1.359375 C 4.804688 -2.566406 3.757812 -4.21875 3.3125 -6.3125 L 5.96875 -7.53125 L 6.4375 -7.4375 C 6.925781 -5.894531 7.675781 -4.734375 8.6875 -3.953125 C 9.695312 -3.179688 11.097656 -2.796875 12.890625 -2.796875 C 15.421875 -2.796875 17.351562 -3.847656 18.6875 -5.953125 C 20.019531 -8.066406 20.6875 -11.335938 20.6875 -15.765625 L 20.25 -15.890625 C 19.394531 -14.148438 18.3125 -12.851562 17 -12 C 15.695312 -11.144531 14.054688 -10.71875 12.078125 -10.71875 C 10.171875 -10.71875 8.507812 -11.128906 7.09375 -11.953125 C 5.6875 -12.785156 4.601562 -13.957031 3.84375 -15.46875 C 3.082031 -16.988281 2.703125 -18.753906 2.703125 -20.765625 C 2.703125 -22.785156 3.117188 -24.5625 3.953125 -26.09375 C 4.796875 -27.632812 5.984375 -28.820312 7.515625 -29.65625 C 9.054688 -30.5 10.847656 -30.921875 12.890625 -30.921875 C 16.460938 -30.921875 19.257812 -29.710938 21.28125 -27.296875 C 23.300781 -24.890625 24.3125 -20.988281 24.3125 -15.59375 C 24.3125 -11.957031 23.832031 -8.941406 22.875 -6.546875 C 21.914062 -4.148438 20.582031 -2.382812 18.875 -1.25 C 17.175781 -0.125 15.179688 0.4375 12.890625 0.4375 Z M 12.890625 -13.84375 C 14.265625 -13.84375 15.457031 -14.113281 16.46875 -14.65625 C 17.488281 -15.195312 18.269531 -15.988281 18.8125 -17.03125 C 19.363281 -18.070312 19.640625 -19.316406 19.640625 -20.765625 C 19.640625 -22.210938 19.363281 -23.457031 18.8125 -24.5 C 18.269531 -25.539062 17.488281 -26.335938 16.46875 -26.890625 C 15.457031 -27.441406 14.265625 -27.71875 12.890625 -27.71875 C 10.867188 -27.71875 9.285156 -27.117188 8.140625 -25.921875 C 7.003906 -24.734375 6.4375 -23.015625 6.4375 -20.765625 C 6.4375 -18.515625 7.003906 -16.796875 8.140625 -15.609375 C 9.285156 -14.429688 10.867188 -13.84375 12.890625 -13.84375 Z M 12.890625 -13.84375 "/></g></g></g><g fill="#f9f3e9" fill-opacity="1"><g transform="translate(518.406722, 371.635383)"><g><path d="M 5.609375 0.203125 C 4.816406 0.203125 4.191406 -0.015625 3.734375 -0.453125 C 3.273438 -0.898438 3.046875 -1.492188 3.046875 -2.234375 C 3.046875 -2.953125 3.273438 -3.546875 3.734375 -4.015625 C 4.191406 -4.484375 4.816406 -4.71875 5.609375 -4.71875 C 6.410156 -4.71875 7.039062 -4.492188 7.5 -4.046875 C 7.957031 -3.597656 8.1875 -3.003906 8.1875 -2.265625 C 8.1875 -1.535156 7.953125 -0.941406 7.484375 -0.484375 C 7.023438 -0.0234375 6.398438 0.203125 5.609375 0.203125 Z M 5.609375 0.203125 "/></g></g></g><g fill="#f9f3e9" fill-opacity="1"><g transform="translate(529.646486, 371.635383)"><g><path d="M 12.078125 0.4375 C 9.109375 0.4375 6.753906 -0.226562 5.015625 -1.5625 C 3.285156 -2.894531 2.160156 -4.742188 1.640625 -7.109375 L 4.3125 -8.3125 L 4.796875 -8.234375 C 5.328125 -6.410156 6.144531 -5.046875 7.25 -4.140625 C 8.351562 -3.242188 9.960938 -2.796875 12.078125 -2.796875 C 14.234375 -2.796875 15.875 -3.285156 17 -4.265625 C 18.125 -5.253906 18.6875 -6.707031 18.6875 -8.625 C 18.6875 -10.507812 18.109375 -11.941406 16.953125 -12.921875 C 15.804688 -13.910156 14.003906 -14.40625 11.546875 -14.40625 L 8.234375 -14.40625 L 8.234375 -17.375 L 11.203125 -17.375 C 13.117188 -17.375 14.640625 -17.847656 15.765625 -18.796875 C 16.898438 -19.742188 17.46875 -21.085938 17.46875 -22.828125 C 17.46875 -24.484375 16.976562 -25.722656 16 -26.546875 C 15.019531 -27.378906 13.648438 -27.796875 11.890625 -27.796875 C 8.816406 -27.796875 6.625 -26.570312 5.3125 -24.125 L 4.84375 -24.046875 L 2.828125 -26.234375 C 3.648438 -27.640625 4.832031 -28.769531 6.375 -29.625 C 7.914062 -30.488281 9.753906 -30.921875 11.890625 -30.921875 C 13.828125 -30.921875 15.476562 -30.617188 16.84375 -30.015625 C 18.21875 -29.410156 19.257812 -28.535156 19.96875 -27.390625 C 20.675781 -26.253906 21.03125 -24.894531 21.03125 -23.3125 C 21.03125 -21.8125 20.597656 -20.492188 19.734375 -19.359375 C 18.867188 -18.222656 17.71875 -17.332031 16.28125 -16.6875 L 16.28125 -16.25 C 18.300781 -15.757812 19.816406 -14.847656 20.828125 -13.515625 C 21.847656 -12.191406 22.359375 -10.5625 22.359375 -8.625 C 22.359375 -5.738281 21.492188 -3.503906 19.765625 -1.921875 C 18.046875 -0.347656 15.484375 0.4375 12.078125 0.4375 Z M 12.078125 0.4375 "/></g></g></g><g fill="#f9f3e9" fill-opacity="1"><g transform="translate(554.419841, 371.635383)"><g><path d="M 14.984375 0.4375 C 12.753906 0.4375 10.75 -0.0976562 8.96875 -1.171875 C 7.1875 -2.253906 5.765625 -3.96875 4.703125 -6.3125 C 3.648438 -8.65625 3.125 -11.628906 3.125 -15.234375 C 3.125 -18.847656 3.648438 -21.828125 4.703125 -24.171875 C 5.765625 -26.515625 7.1875 -28.222656 8.96875 -29.296875 C 10.75 -30.378906 12.753906 -30.921875 14.984375 -30.921875 C 17.222656 -30.921875 19.234375 -30.378906 21.015625 -29.296875 C 22.796875 -28.222656 24.207031 -26.515625 25.25 -24.171875 C 26.300781 -21.828125 26.828125 -18.847656 26.828125 -15.234375 C 26.828125 -11.628906 26.300781 -8.65625 25.25 -6.3125 C 24.207031 -3.96875 22.796875 -2.253906 21.015625 -1.171875 C 19.234375 -0.0976562 17.222656 0.4375 14.984375 0.4375 Z M 14.984375 -2.875 C 17.640625 -2.875 19.648438 -3.828125 21.015625 -5.734375 C 22.390625 -7.648438 23.078125 -10.816406 23.078125 -15.234375 C 23.078125 -19.660156 22.390625 -22.828125 21.015625 -24.734375 C 19.648438 -26.648438 17.640625 -27.609375 14.984375 -27.609375 C 13.234375 -27.609375 11.757812 -27.203125 10.5625 -26.390625 C 9.375 -25.585938 8.460938 -24.273438 7.828125 -22.453125 C 7.191406 -20.628906 6.875 -18.222656 6.875 -15.234375 C 6.875 -12.253906 7.191406 -9.851562 7.828125 -8.03125 C 8.460938 -6.207031 9.375 -4.890625 10.5625 -4.078125 C 11.757812 -3.273438 13.234375 -2.875 14.984375 -2.875 Z M 14.984375 -2.875 "/></g></g></g></svg>